<?xml version="1.0" encoding="utf-8"?>
<!-- Generator: Adobe Illustrator 16.0.0, SVG Export Plug-In . SVG Version: 6.00 Build 0)  -->
<!DOCTYPE svg PUBLIC "-//W3C//DTD SVG 1.1//EN" "http://www.w3.org/Graphics/SVG/1.1/DTD/svg11.dtd">
<svg version="1.1" id="Layer_1" xmlns="http://www.w3.org/2000/svg" xmlns:xlink="http://www.w3.org/1999/xlink" x="0px" y="0px"
	 width="21.75px" height="21.75px" viewBox="0 0 21.75 21.75" enable-background="new 0 0 21.75 21.75" xml:space="preserve">
<path fill="#D5DDDF" d="M21.003,9.516l-1.972-1.97V2.719c0-0.748-0.612-1.359-1.359-1.359h-1.359c-0.747,0-1.359,0.612-1.359,1.359
	v0.752l-2.719-2.716C11.862,0.403,11.523,0,10.875,0S9.887,0.403,9.516,0.755L0.748,9.516C0.323,9.958,0,10.279,0,10.875
	c0,0.765,0.587,1.359,1.359,1.359h1.359v8.156c0,0.747,0.612,1.359,1.359,1.359h4.078v-6.797c0-0.747,0.612-1.359,1.359-1.359h2.719
	c0.747,0,1.359,0.612,1.359,1.359v6.797h4.078c0.747,0,1.359-0.612,1.359-1.359v-8.156h1.359c0.772,0,1.359-0.595,1.359-1.359
	C21.75,10.279,21.426,9.958,21.003,9.516z"/>
</svg>
