<?xml version="1.0" encoding="utf-8"?>
<!-- Generator: Adobe Illustrator 16.0.0, SVG Export Plug-In . SVG Version: 6.00 Build 0)  -->
<!DOCTYPE svg PUBLIC "-//W3C//DTD SVG 1.1//EN" "http://www.w3.org/Graphics/SVG/1.1/DTD/svg11.dtd">
<svg version="1.1" id="Layer_1" xmlns="http://www.w3.org/2000/svg" xmlns:xlink="http://www.w3.org/1999/xlink" x="0px" y="0px"
	 width="22.312px" height="22.312px" viewBox="0 0 22.312 22.312" enable-background="new 0 0 22.312 22.312" xml:space="preserve">
<path fill="#D5DDDF" d="M12.546,0.09c1.607,0.205,3.108,0.753,4.425,1.569c-0.244,0.187-0.488,0.376-0.728,0.567
	c-0.234,0.199-0.472,0.397-0.704,0.601l-0.656,0.609c-0.152-0.101-0.336-0.16-0.533-0.16c-0.083,0-0.165,0.012-0.241,0.031
	c-0.031-0.054-0.061-0.109-0.091-0.163c-0.165-0.335-0.343-0.667-0.514-1.001c-0.157-0.34-0.326-0.677-0.488-1.019l-0.232-0.519
	C12.707,0.434,12.626,0.262,12.546,0.09z M12.041,0.216c-0.054,0.111-0.13,0.275-0.233,0.48c-0.051,0.103-0.108,0.216-0.171,0.34
	c-0.062,0.123-0.139,0.252-0.218,0.393c-0.164,0.276-0.332,0.602-0.555,0.929c-0.216,0.332-0.441,0.7-0.715,1.061
	c-0.134,0.183-0.269,0.374-0.414,0.564C9.586,4.171,9.435,4.362,9.278,4.555C9.199,4.65,9.119,4.747,9.04,4.844
	C8.957,4.938,8.873,5.034,8.788,5.13C8.618,5.32,8.449,5.516,8.272,5.708c-0.184,0.186-0.368,0.374-0.554,0.56
	c-0.093,0.094-0.183,0.191-0.281,0.28L7.33,6.647c0.049,0.115,0.078,0.244,0.078,0.378c0,0.068-0.008,0.135-0.021,0.198
	C7.443,7.25,7.498,7.275,7.553,7.304C7.842,7.45,8.13,7.617,8.427,7.778c0.3,0.158,0.589,0.339,0.884,0.521
	C9.458,8.39,9.606,8.483,9.754,8.576c0.109,0.069,0.217,0.145,0.324,0.22c0.163-0.125,0.364-0.197,0.583-0.197
	c0.062,0,0.122,0.005,0.181,0.016l0.105-0.181c0.103-0.173,0.196-0.352,0.308-0.519l0.673-1.001l0.169-0.249
	c0.057-0.083,0.12-0.161,0.181-0.242c0.121-0.16,0.245-0.319,0.368-0.477c0.248-0.315,0.487-0.637,0.761-0.933
	c0.056-0.064,0.113-0.129,0.17-0.194c-0.121-0.161-0.193-0.36-0.193-0.579c0-0.298,0.135-0.566,0.348-0.743l-0.082-0.176
	c-0.15-0.35-0.29-0.705-0.433-1.056c-0.129-0.358-0.249-0.721-0.371-1.08L12.693,0.64c-0.051-0.182-0.098-0.367-0.146-0.549
	c-0.139-0.019-0.281-0.034-0.423-0.045C12.124,0.044,12.095,0.104,12.041,0.216z M14.548,13.431
	c-0.112-0.122-0.224-0.244-0.338-0.367c-0.056-0.063-0.116-0.122-0.177-0.179c-0.061-0.059-0.122-0.117-0.183-0.176
	c-0.244-0.235-0.491-0.474-0.739-0.714c-0.122-0.123-0.252-0.235-0.384-0.35c-0.131-0.113-0.261-0.228-0.393-0.343
	c-0.13-0.113-0.263-0.228-0.393-0.343c-0.067-0.057-0.13-0.115-0.199-0.171l-0.21-0.164c-0.11-0.085-0.223-0.17-0.333-0.256
	c-0.154,0.103-0.339,0.164-0.538,0.164c-0.041,0-0.082-0.003-0.124-0.009c-0.138,0.283-0.264,0.566-0.397,0.849
	c-0.085,0.175-0.159,0.357-0.234,0.539L9.68,12.455c-0.076,0.182-0.138,0.368-0.209,0.551l-0.208,0.552l-0.19,0.56
	c-0.062,0.185-0.131,0.37-0.183,0.56l-0.168,0.566l-0.087,0.282L8.56,15.812c-0.076,0.292-0.156,0.583-0.226,0.875
	c0.091,0.042,0.172,0.097,0.244,0.163c0.044-0.029,0.086-0.059,0.13-0.087c0.233-0.146,0.472-0.293,0.714-0.446
	c0.491-0.292,1.003-0.585,1.541-0.849c0.135-0.067,0.27-0.135,0.405-0.204c0.136-0.063,0.274-0.126,0.413-0.191
	c0.275-0.125,0.552-0.253,0.837-0.363c0.283-0.11,0.562-0.231,0.851-0.334c0.288-0.103,0.572-0.206,0.858-0.304
	c0.042-0.013,0.083-0.024,0.126-0.038c0-0.007-0.001-0.015-0.001-0.022c0-0.192,0.056-0.371,0.154-0.521
	C14.586,13.471,14.565,13.452,14.548,13.431z M0.551,12.677c0.164,0.129,0.322,0.263,0.488,0.39
	c0.334,0.246,0.658,0.502,0.994,0.742l0.506,0.358c0.169,0.116,0.333,0.242,0.51,0.35l0.516,0.341
	c0.172,0.113,0.342,0.228,0.521,0.331c0.176,0.106,0.354,0.211,0.529,0.319l0.263,0.161l0.269,0.15l0.539,0.3
	c0.09,0.049,0.179,0.102,0.271,0.148l0.275,0.139c0.331,0.167,0.656,0.344,0.993,0.498c0.166-0.176,0.396-0.29,0.655-0.303
	c0.055-0.304,0.122-0.605,0.184-0.91c0.073-0.396,0.189-0.781,0.288-1.17c0.047-0.196,0.111-0.386,0.168-0.579l0.176-0.577
	c0.129-0.379,0.261-0.76,0.405-1.136l0.226-0.56c0.075-0.187,0.149-0.374,0.236-0.558c0.133-0.292,0.262-0.591,0.402-0.877
	c-0.167-0.174-0.27-0.409-0.27-0.669c0-0.098,0.015-0.194,0.042-0.284C9.636,9.208,9.533,9.135,9.43,9.066
	C9.285,8.975,9.142,8.882,8.999,8.791C8.715,8.605,8.438,8.417,8.152,8.256C7.869,8.091,7.598,7.92,7.317,7.767
	c-0.056-0.031-0.109-0.06-0.165-0.089C6.977,7.87,6.724,7.992,6.441,7.992c-0.177,0-0.342-0.048-0.485-0.132
	c-0.41,0.323-0.818,0.641-1.229,0.917C4.326,9.07,3.917,9.32,3.531,9.562c-0.395,0.227-0.76,0.454-1.117,0.626
	c-0.176,0.091-0.345,0.178-0.506,0.26c-0.16,0.083-0.32,0.147-0.465,0.215c-0.293,0.134-0.547,0.25-0.765,0.329
	c-0.429,0.168-0.677,0.257-0.677,0.257c0.003,0.352,0.024,0.7,0.059,1.042C0.225,12.417,0.388,12.549,0.551,12.677z M14.99,13.146
	c0.129-0.063,0.272-0.1,0.427-0.1c0.362,0,0.676,0.199,0.842,0.494c0.193-0.047,0.385-0.093,0.573-0.138
	c0.268-0.055,0.535-0.096,0.792-0.144c0.256-0.046,0.508-0.088,0.749-0.128c0.243-0.039,0.481-0.055,0.708-0.082
	c0.227-0.024,0.444-0.047,0.651-0.066c0.207-0.02,0.402-0.041,0.585-0.043c0.159-0.006,0.307-0.011,0.446-0.014
	c0.002-0.196,0.061-0.378,0.161-0.529c-0.032-0.023-0.063-0.045-0.095-0.069l-0.301-0.22l-0.29-0.235l-0.576-0.478
	c-0.094-0.08-0.194-0.156-0.285-0.241l-0.272-0.257l-0.545-0.515c-0.185-0.167-0.354-0.353-0.524-0.534l-0.511-0.55l-0.127-0.137
	l-0.121-0.143l-0.241-0.288l-0.474-0.58c-0.082-0.096-0.155-0.198-0.228-0.299L16.11,7.544c-0.147-0.203-0.297-0.403-0.442-0.606
	c-0.142-0.207-0.271-0.421-0.406-0.632l-0.403-0.634c-0.095-0.161-0.184-0.328-0.274-0.494c-0.076,0.02-0.153,0.03-0.235,0.03
	c-0.155,0-0.301-0.037-0.43-0.102c-0.052,0.066-0.104,0.132-0.155,0.197c-0.254,0.303-0.472,0.633-0.697,0.955
	c-0.112,0.162-0.226,0.323-0.341,0.483C12.67,6.823,12.61,6.9,12.558,6.983l-0.157,0.25l-0.628,1
	c-0.132,0.228-0.262,0.459-0.389,0.691c0.151,0.171,0.243,0.394,0.243,0.64c0,0.114-0.02,0.224-0.057,0.324
	c0.111,0.088,0.22,0.175,0.332,0.261l0.208,0.165c0.069,0.058,0.136,0.12,0.204,0.179c0.135,0.119,0.27,0.24,0.404,0.358
	c0.134,0.119,0.268,0.239,0.403,0.358c0.133,0.119,0.27,0.234,0.39,0.363c0.247,0.253,0.492,0.504,0.735,0.75
	c0.06,0.062,0.12,0.124,0.18,0.185c0.061,0.062,0.121,0.123,0.175,0.188c0.112,0.128,0.224,0.257,0.334,0.384
	C14.954,13.103,14.971,13.124,14.99,13.146z M21.044,12.246c0.175-0.177,0.418-0.286,0.686-0.286c0.173,0,0.335,0.045,0.476,0.125
	c0.028-0.316,0.042-0.638,0.042-0.962c0-3.998-2.109-7.503-5.276-9.464c-0.214,0.222-0.43,0.44-0.646,0.657
	c-0.21,0.223-0.418,0.45-0.629,0.668l-0.587,0.66c0.13,0.164,0.208,0.371,0.208,0.597c0,0.265-0.106,0.503-0.277,0.678l0.284,0.47
	l0.404,0.615c0.136,0.204,0.263,0.413,0.406,0.612c0.146,0.197,0.286,0.398,0.43,0.597l0.213,0.3
	c0.071,0.099,0.141,0.201,0.219,0.294l0.459,0.576l0.225,0.29l0.113,0.146l0.12,0.139l0.482,0.558
	c0.163,0.184,0.314,0.378,0.486,0.553l0.505,0.538l0.251,0.27c0.083,0.091,0.174,0.174,0.261,0.261l0.527,0.519l0.262,0.263
	l0.273,0.249C20.988,12.195,21.016,12.221,21.044,12.246z M4.656,20.174c0.874,0.625,1.84,1.126,2.876,1.479
	c-0.011-0.398-0.027-0.798-0.021-1.196l0.014-0.6l0.011-0.3l0.021-0.3l0.042-0.6c0.005-0.06,0.011-0.119,0.018-0.178
	c-0.134-0.046-0.256-0.121-0.356-0.216c-0.063,0.041-0.126,0.083-0.186,0.125c-0.184,0.128-0.36,0.252-0.526,0.37
	c-0.084,0.059-0.167,0.116-0.246,0.171c-0.079,0.058-0.155,0.113-0.228,0.168c-0.147,0.109-0.286,0.212-0.413,0.306
	c-0.064,0.046-0.127,0.092-0.186,0.134c-0.057,0.045-0.111,0.088-0.163,0.129c-0.391,0.307-0.63,0.486-0.656,0.504
	c0.024-0.025,0.227-0.243,0.575-0.598c0.182-0.195,0.423-0.406,0.694-0.658c0.265-0.259,0.595-0.517,0.944-0.812
	c0.058-0.048,0.118-0.094,0.177-0.141c-0.055-0.122-0.086-0.256-0.086-0.398c0-0.038,0.002-0.077,0.007-0.114
	c-0.344-0.163-0.677-0.348-1.015-0.524l-0.278-0.149c-0.091-0.052-0.179-0.108-0.27-0.162L4.868,16.29l-0.27-0.163l-0.261-0.176
	c-0.176-0.115-0.348-0.234-0.521-0.352c-0.175-0.116-0.343-0.244-0.51-0.369l-0.502-0.378c-0.168-0.123-0.325-0.264-0.486-0.397
	l-0.481-0.403c-0.159-0.133-0.308-0.284-0.461-0.424c-0.153-0.145-0.306-0.285-0.457-0.431c-0.292-0.296-0.577-0.599-0.859-0.906
	C0.399,15.538,2.135,18.37,4.656,20.174z M1.675,5.251C0.613,6.955,0,8.968,0,11.123c0,0.042,0,0.084,0.001,0.125
	c0,0,0.222-0.144,0.617-0.378c0.199-0.114,0.431-0.269,0.701-0.436c0.271-0.167,0.57-0.367,0.896-0.582
	c0.083-0.054,0.165-0.108,0.25-0.165C2.549,9.631,2.632,9.571,2.719,9.51C2.892,9.391,3.07,9.268,3.255,9.141
	c0.18-0.132,0.364-0.269,0.552-0.408C4,8.6,4.188,8.452,4.379,8.303C4.57,8.154,4.77,8.006,4.958,7.845
	C5.149,7.688,5.344,7.53,5.54,7.37C5.498,7.262,5.475,7.146,5.475,7.025c0-0.07,0.007-0.139,0.022-0.204
	C5.315,6.73,5.14,6.641,4.962,6.567c-0.484-0.213-0.924-0.42-1.326-0.572c-0.2-0.081-0.388-0.156-0.561-0.226
	C2.904,5.696,2.741,5.64,2.595,5.587c-0.55-0.196-0.876-0.32-0.915-0.335c0.04,0.009,0.382,0.08,0.95,0.213
	c0.306,0.061,0.667,0.176,1.087,0.298C3.924,5.826,4.151,5.883,4.38,5.969c0.229,0.083,0.471,0.169,0.723,0.259
	C5.29,6.292,5.477,6.367,5.668,6.447c0.176-0.236,0.457-0.389,0.773-0.389c0.163,0,0.318,0.041,0.452,0.112l0.099-0.089
	c0.097-0.086,0.185-0.18,0.279-0.269C7.455,5.631,7.639,5.45,7.82,5.272c0.177-0.184,0.353-0.365,0.527-0.545
	C8.433,4.636,8.52,4.548,8.605,4.459C8.688,4.366,8.77,4.275,8.851,4.185C9.01,4.002,9.172,3.825,9.33,3.652
	c0.153-0.176,0.298-0.354,0.443-0.525c0.072-0.085,0.143-0.17,0.212-0.252c0.036-0.042,0.071-0.083,0.105-0.124
	c0.033-0.042,0.066-0.083,0.099-0.125c0.131-0.165,0.257-0.324,0.377-0.478c0.248-0.304,0.455-0.595,0.646-0.848
	c0.096-0.128,0.186-0.248,0.268-0.357c0.081-0.114,0.154-0.218,0.219-0.312c0.132-0.188,0.238-0.334,0.311-0.435
	s0.112-0.153,0.112-0.153C11.793,0.015,11.461,0,11.123,0C7.134,0,3.638,2.098,1.675,5.251z M18.026,19.845
	c-0.415,0.01-0.832,0.013-1.25,0.013c-0.209,0.001-0.417-0.017-0.624-0.026l-0.626-0.035c-0.209-0.006-0.416-0.041-0.624-0.061
	l-0.624-0.072c-0.208-0.021-0.415-0.055-0.622-0.092l-0.62-0.107l-0.309-0.056l-0.307-0.068c-0.205-0.045-0.408-0.092-0.612-0.142
	l-0.308-0.072c-0.1-0.026-0.201-0.057-0.302-0.085l-0.605-0.174c-0.406-0.107-0.801-0.26-1.2-0.397
	c-0.252-0.083-0.494-0.179-0.733-0.276c-0.172,0.201-0.426,0.33-0.71,0.336c-0.045,0.253-0.084,0.506-0.127,0.759l-0.047,0.292
	L7.74,19.877l-0.079,0.59c-0.048,0.393-0.081,0.79-0.128,1.186c1.126,0.385,2.335,0.593,3.591,0.593
	C13.73,22.247,16.13,21.349,18.026,19.845z M18.027,19.845c0.277-0.22,0.545-0.454,0.799-0.698c1.474-1.414,2.557-3.229,3.076-5.27
	c-0.055,0.01-0.113,0.015-0.172,0.015c-0.479,0-0.875-0.349-0.951-0.805c-0.141,0.02-0.286,0.038-0.444,0.058
	c-0.184,0.02-0.375,0.057-0.577,0.095c-0.2,0.04-0.414,0.08-0.635,0.117c-0.22,0.043-0.451,0.075-0.688,0.13
	c-0.234,0.057-0.478,0.116-0.729,0.173c-0.25,0.059-0.509,0.114-0.771,0.182c-0.181,0.053-0.366,0.107-0.553,0.163v0.007
	c0,0.228-0.079,0.436-0.211,0.601c0.371,0.466,0.671,0.958,0.965,1.396c0.074,0.112,0.146,0.22,0.217,0.328
	c0.071,0.107,0.127,0.22,0.19,0.326c0.12,0.211,0.234,0.413,0.343,0.602c0.105,0.189,0.21,0.364,0.294,0.532
	c0.083,0.17,0.157,0.326,0.226,0.466c0.137,0.28,0.239,0.502,0.311,0.653c0.062,0.132,0.099,0.209,0.105,0.228
	c-0.01-0.017-0.055-0.09-0.134-0.214c-0.088-0.143-0.22-0.347-0.382-0.613c-0.081-0.132-0.171-0.278-0.269-0.437
	c-0.102-0.156-0.221-0.321-0.341-0.5c-0.122-0.177-0.25-0.368-0.387-0.567c-0.07-0.099-0.136-0.204-0.213-0.304
	c-0.076-0.101-0.154-0.204-0.233-0.309c-0.159-0.211-0.324-0.43-0.497-0.656c-0.084-0.114-0.171-0.229-0.27-0.34
	c-0.087-0.106-0.176-0.213-0.266-0.321c-0.125,0.061-0.267,0.094-0.415,0.094c-0.334,0-0.628-0.168-0.802-0.426
	c-0.042,0.014-0.083,0.028-0.123,0.042c-0.274,0.103-0.551,0.202-0.828,0.305c-0.278,0.104-0.552,0.225-0.828,0.336
	c-0.278,0.108-0.546,0.242-0.819,0.36c-0.135,0.062-0.271,0.123-0.405,0.183c-0.133,0.065-0.266,0.13-0.397,0.194
	c-0.264,0.13-0.526,0.256-0.778,0.396s-0.509,0.263-0.751,0.403c-0.243,0.14-0.482,0.276-0.716,0.412
	c-0.041,0.024-0.083,0.05-0.124,0.075c0.031,0.097,0.049,0.198,0.049,0.304c0,0.024-0.002,0.048-0.003,0.071
	c0.239,0.1,0.477,0.198,0.716,0.279l0.576,0.209c0.19,0.076,0.387,0.138,0.582,0.2l0.587,0.19c0.098,0.032,0.195,0.064,0.294,0.094
	l0.297,0.082c0.198,0.053,0.396,0.108,0.595,0.164l0.296,0.085l0.301,0.071l0.603,0.139c0.201,0.046,0.4,0.097,0.604,0.133
	c0.406,0.075,0.809,0.162,1.218,0.228l1.229,0.187C17.2,19.743,17.612,19.791,18.027,19.845v-0.269V19.845L18.027,19.845z"/>
</svg>
