<?xml version="1.0" encoding="utf-8"?>
<!-- Generator: Adobe Illustrator 16.0.0, SVG Export Plug-In . SVG Version: 6.00 Build 0)  -->
<!DOCTYPE svg PUBLIC "-//W3C//DTD SVG 1.1//EN" "http://www.w3.org/Graphics/SVG/1.1/DTD/svg11.dtd">
<svg version="1.1" id="Capa_1" xmlns:sketch="http://www.bohemiancoding.com/sketch/ns"
	 xmlns="http://www.w3.org/2000/svg" xmlns:xlink="http://www.w3.org/1999/xlink" x="0px" y="0px" width="32px" height="32px"
	 viewBox="0 0 32 32" enable-background="new 0 0 32 32" xml:space="preserve">
<title></title>
<desc></desc>
<g id="Page-1">
	<g id="icon-24-key">
		<path id="key" fill="#D5DDDF" d="M18.532,19.468L14,24h-3v3H8v3H3v-5l10.532-10.532C13.188,13.544,13,12.544,13,11.5
			C13,6.806,16.806,3,21.5,3S30,6.806,30,11.5S26.194,20,21.5,20C20.456,20,19.456,19.812,18.532,19.468L18.532,19.468
			L18.532,19.468z M13.999,15.501L4,25.5V29h3v-3h3v-3h3.5l3.998-3.998C16.014,18.207,14.792,16.986,13.999,15.501L13.999,15.501
			L13.999,15.501z M29,11.5C29,7.358,25.643,4,21.5,4S14,7.358,14,11.5s3.357,7.5,7.5,7.5S29,15.642,29,11.5L29,11.5L29,11.5z M27,9
			c0-1.657-1.344-3-3-3s-3,1.343-3,3s1.344,3,3,3S27,10.657,27,9L27,9L27,9z M26,9c0-1.104-0.896-2-2-2s-2,0.896-2,2s0.896,2,2,2
			S26,10.104,26,9L26,9L26,9z"/>
	</g>
</g>
</svg>
