<?xml version="1.0" encoding="utf-8"?>
<!-- Generator: Adobe Illustrator 16.0.0, SVG Export Plug-In . SVG Version: 6.00 Build 0)  -->
<!DOCTYPE svg PUBLIC "-//W3C//DTD SVG 1.1//EN" "http://www.w3.org/Graphics/SVG/1.1/DTD/svg11.dtd">
<svg version="1.1" id="Layer_1" xmlns="http://www.w3.org/2000/svg" xmlns:xlink="http://www.w3.org/1999/xlink" x="0px" y="0px"
	 width="17.835px" height="22.167px" viewBox="1.333 0 17.835 22.167" enable-background="new 1.333 0 17.835 22.167"
	 xml:space="preserve">
<path fill="#D5DDDF" d="M10.219,0C5.681,0,2,3.681,2,8.219c0,5.278,5.918,11.867,6.849,12.874c0.385,0.417,0.707,0.824,1.37,0.824
	s0.985-0.407,1.37-0.824c0.931-1.007,6.849-7.596,6.849-12.874C18.438,3.681,14.756,0,10.219,0z M10.219,13.698
	c-3.026,0-5.479-2.453-5.479-5.479c0-3.026,2.453-5.479,5.479-5.479c3.026,0,5.479,2.453,5.479,5.479
	C15.698,11.245,13.245,13.698,10.219,13.698z M10.219,5.479c-1.512,0-2.74,1.228-2.74,2.74c0,1.512,1.228,2.739,2.74,2.739
	s2.739-1.228,2.739-2.739C12.958,6.707,11.73,5.479,10.219,5.479z"/>
</svg>
