<?xml version="1.0" encoding="utf-8"?>
<!-- Generator: Adobe Illustrator 16.0.0, SVG Export Plug-In . SVG Version: 6.00 Build 0)  -->
<!DOCTYPE svg PUBLIC "-//W3C//DTD SVG 1.1//EN" "http://www.w3.org/Graphics/SVG/1.1/DTD/svg11.dtd">
<svg version="1.1" id="Capa_1" xmlns:sketch="http://www.bohemiancoding.com/sketch/ns"
	 xmlns="http://www.w3.org/2000/svg" xmlns:xlink="http://www.w3.org/1999/xlink" x="0px" y="0px" width="22.25px" height="22.25px"
	 viewBox="0 0 22.25 22.25" enable-background="new 0 0 22.25 22.25" xml:space="preserve">
<title></title>
<desc></desc>
<g id="Page-1">
	<g id="Icons-Communication" transform="translate(-85.000000, -126.000000)">
		<g id="phone" transform="translate(85.000000, 126.000000)">
			<path id="Shape" fill="#D5DDDF" d="M4.452,9.646c1.731,3.462,4.699,6.307,8.162,8.162l2.721-2.722
				c0.37-0.37,0.864-0.494,1.236-0.246c1.36,0.494,2.845,0.74,4.452,0.74c0.741,0,1.236,0.496,1.236,1.237v4.205
				c0,0.741-0.495,1.236-1.236,1.236C9.399,22.26,0,12.861,0,1.236C0,0.495,0.495,0,1.237,0h4.328c0.742,0,1.237,0.495,1.237,1.236
				c0,1.485,0.248,2.968,0.742,4.452c0.124,0.371,0,0.866-0.247,1.237L4.452,9.646L4.452,9.646z"/>
		</g>
	</g>
</g>
</svg>
